<svg width="87" height="82" viewBox="0 0 87 82" fill="none" xmlns="http://www.w3.org/2000/svg">
<path d="M65.0938 11C65.9082 11.0002 66.7039 11.2442 67.3784 11.7007C68.0529 12.1571 68.5753 12.8051 68.8783 13.5611C69.683 15.5675 70.9173 17.0193 72.1299 17.9546C73.4457 18.9605 74.4245 19.1454 74.6094 19.1454C75.691 19.1454 76.7282 19.575 77.493 20.3398C78.2578 21.1046 78.6875 22.1419 78.6875 23.2235C78.6875 24.3051 78.2578 25.3424 77.493 26.1072C76.7282 26.872 75.691 27.3016 74.6094 27.3016C72.0755 27.3016 69.3894 26.1271 67.16 24.4197C66.4495 23.876 65.7607 23.2525 65.0938 22.5493C63.6994 24.0391 62.0158 25.229 60.146 26.0461C58.2761 26.8632 56.2593 27.2904 54.2188 27.3016C52.1786 27.2911 50.162 26.8648 48.2922 26.0486C46.4224 25.2324 44.7386 24.0436 43.3438 22.5547C41.9489 24.0436 40.2651 25.2324 38.3953 26.0486C36.5255 26.8648 34.5089 27.2911 32.4688 27.3016C30.4286 27.2911 28.412 26.8648 26.5422 26.0486C24.6724 25.2324 22.9886 24.0436 21.5938 22.5547C20.9268 23.2579 20.238 23.8832 19.5275 24.4306C17.3036 26.138 14.6174 27.3125 12.0781 27.3125C10.9965 27.3125 9.95925 26.8828 9.19446 26.118C8.42966 25.3532 8 24.316 8 23.2344C8 22.1528 8.42966 21.1155 9.19446 20.3507C9.95925 19.5859 10.9965 19.1562 12.0781 19.1562C12.2576 19.1562 13.2417 18.9714 14.5522 17.96C15.7702 17.0302 17.0045 15.5675 17.8092 13.5665C18.1126 12.811 18.6351 12.1635 19.3096 11.7075C19.9841 11.2515 20.7796 11.0078 21.5938 11.0078C22.4079 11.0078 23.2034 11.2515 23.8779 11.7075C24.5524 12.1635 25.0749 12.811 25.3783 13.5665C26.9986 17.6011 29.9457 19.1454 32.4688 19.1454C34.9918 19.1454 37.9443 17.6011 39.5592 13.5611C39.8626 12.8055 40.3851 12.1581 41.0596 11.7021C41.7341 11.2461 42.5296 11.0024 43.3438 11.0024C44.1579 11.0024 44.9534 11.2461 45.6279 11.7021C46.3024 12.1581 46.8249 12.8055 47.1283 13.5611C48.7432 17.6011 51.6958 19.1454 54.2188 19.1454C56.7417 19.1454 59.6943 17.5957 61.3092 13.5611C61.6122 12.8051 62.1346 12.1571 62.8091 11.7007C63.4836 11.2442 64.2793 11.0002 65.0938 11ZM65.0938 32.75C65.9082 32.7502 66.7039 32.9942 67.3784 33.4507C68.0529 33.9071 68.5753 34.5551 68.8783 35.3111C69.683 37.3175 70.9173 38.7693 72.1299 39.7046C73.4457 40.7105 74.4245 40.8954 74.6094 40.8954C75.691 40.8954 76.7282 41.325 77.493 42.0898C78.2578 42.8546 78.6875 43.8919 78.6875 44.9735C78.6875 46.0551 78.2578 47.0924 77.493 47.8572C76.7282 48.622 75.691 49.0516 74.6094 49.0516C72.0755 49.0516 69.3894 47.8771 67.16 46.1698C66.4495 45.626 65.7607 45.0025 65.0938 44.2992C63.6994 45.7891 62.0158 46.979 60.146 47.7961C58.2761 48.6132 56.2593 49.0404 54.2188 49.0516C52.1786 49.0411 50.162 48.6148 48.2922 47.7986C46.4224 46.9824 44.7386 45.7936 43.3438 44.3047C41.9489 45.7936 40.2651 46.9824 38.3953 47.7986C36.5255 48.6148 34.5089 49.0411 32.4688 49.0516C30.4286 49.0411 28.412 48.6148 26.5422 47.7986C24.6724 46.9824 22.9886 45.7936 21.5938 44.3047C20.9268 45.0079 20.238 45.6333 19.5275 46.1806C17.3036 47.888 14.6174 49.0625 12.0781 49.0625C10.9965 49.0625 9.95925 48.6328 9.19446 47.868C8.42966 47.1032 8 46.066 8 44.9844C8 43.9028 8.42966 42.8655 9.19446 42.1007C9.95925 41.3359 10.9965 40.9062 12.0781 40.9062C12.2576 40.9062 13.2417 40.7214 14.5522 39.71C15.7702 38.7802 17.0045 37.3175 17.8092 35.3165C18.1126 34.561 18.6351 33.9135 19.3096 33.4575C19.9841 33.0015 20.7796 32.7578 21.5938 32.7578C22.4079 32.7578 23.2034 33.0015 23.8779 33.4575C24.5524 33.9135 25.0749 34.561 25.3783 35.3165C26.9986 39.3511 29.9457 40.8954 32.4688 40.8954C34.9918 40.8954 37.9443 39.3511 39.5592 35.3111C39.8626 34.5555 40.3851 33.9081 41.0596 33.4521C41.7341 32.9961 42.5296 32.7524 43.3438 32.7524C44.1579 32.7524 44.9534 32.9961 45.6279 33.4521C46.3024 33.9081 46.8249 34.5555 47.1283 35.3111C48.7432 39.3511 51.6958 40.8954 54.2188 40.8954C56.7417 40.8954 59.6943 39.3457 61.3092 35.3111C61.6122 34.5551 62.1346 33.9071 62.8091 33.4507C63.4836 32.9942 64.2793 32.7502 65.0938 32.75ZM68.8783 57.0611C68.5749 56.3055 68.0524 55.6581 67.3779 55.2021C66.7034 54.7461 65.9079 54.5024 65.0938 54.5024C64.2796 54.5024 63.4841 54.7461 62.8096 55.2021C62.1351 55.6581 61.6126 56.3055 61.3092 57.0611C59.6943 61.0957 56.7417 62.6454 54.2188 62.6454C51.6958 62.6454 48.7432 61.1011 47.1283 57.0611C46.8249 56.3055 46.3024 55.6581 45.6279 55.2021C44.9534 54.7461 44.1579 54.5024 43.3438 54.5024C42.5296 54.5024 41.7341 54.7461 41.0596 55.2021C40.3851 55.6581 39.8626 56.3055 39.5592 57.0611C37.9389 61.0957 34.9918 62.6454 32.4688 62.6454C29.9457 62.6454 26.9986 61.1011 25.3783 57.0611C25.0749 56.3055 24.5524 55.6581 23.8779 55.2021C23.2034 54.7461 22.4079 54.5024 21.5938 54.5024C20.7796 54.5024 19.9841 54.7461 19.3096 55.2021C18.6351 55.6581 18.1126 56.3055 17.8092 57.0611C17.0045 59.0729 15.7702 60.5247 14.5522 61.4654C13.2417 62.4714 12.2576 62.6562 12.0781 62.6562C10.9965 62.6562 9.95925 63.0859 9.19446 63.8507C8.42966 64.6155 8 65.6528 8 66.7344C8 67.816 8.42966 68.8532 9.19446 69.618C9.95925 70.3828 10.9965 70.8125 12.0781 70.8125C14.6174 70.8125 17.3036 69.638 19.5275 67.9306C20.238 67.3869 20.9268 66.7616 21.5938 66.0547C22.9886 67.5436 24.6724 68.7324 26.5422 69.5486C28.412 70.3648 30.4286 70.7911 32.4688 70.8016C34.5089 70.7911 36.5255 70.3648 38.3953 69.5486C40.2651 68.7324 41.9489 67.5436 43.3438 66.0547C44.7386 67.5436 46.4224 68.7324 48.2922 69.5486C50.162 70.3648 52.1786 70.7911 54.2188 70.8016C56.2593 70.7904 58.2761 70.3632 60.146 69.5461C62.0158 68.729 63.6994 67.5391 65.0938 66.0492C65.7607 66.7525 66.4495 67.376 67.16 67.9198C69.3894 69.6271 72.0755 70.8016 74.6094 70.8016C75.691 70.8016 76.7282 70.372 77.493 69.6072C78.2578 68.8424 78.6875 67.8051 78.6875 66.7235C78.6875 65.6419 78.2578 64.6046 77.493 63.8398C76.7282 63.075 75.691 62.6454 74.6094 62.6454C74.4245 62.6454 73.4457 62.4605 72.1299 61.4491C70.672 60.3046 69.5489 58.7889 68.8783 57.0611Z" fill="black"/>
</svg>
