<svg width="87" height="87" viewBox="0 0 87 87" fill="none" xmlns="http://www.w3.org/2000/svg">
<g clip-path="url(#clip0_300_118)">
<path d="M52.8925 0L50.6568 2.14251L33.3621 19.5628L31.1264 21.7022L28.017 24.8163L20.9243 32.0193L19.1737 33.7694L20.5357 35.9119C20.5357 35.9119 22.4324 38.8298 23.9374 42.0405C24.6899 43.6473 25.3677 45.3507 25.5854 46.5185C25.6973 47.1009 25.7098 47.4528 25.6849 47.5867C25.3429 47.8545 21.2508 51.1056 16.3566 55.0823C11.2571 59.2179 5.83733 63.5714 3.62651 65.7855C1.30369 68.1268 0 71.2933 0 74.5938C0 77.8943 1.30369 81.0608 3.62651 83.402C8.43682 88.2164 16.2819 88.1822 21.1171 83.402H21.2135C23.4368 81.1754 27.8957 75.8347 32.0033 70.7494C34.5385 67.6107 37.0645 64.4644 39.581 61.3106C39.5686 61.323 39.7147 61.1144 40.8434 61.3106C41.9722 61.5036 43.5766 62.0891 45.1189 62.8676C47.1756 63.9281 49.156 65.131 51.0455 66.4675L53.1848 68.0246L55.0287 66.1748L62.2209 59.0715L65.3303 55.9574L67.4696 53.7184L84.8607 36.3977L87 34.1586L84.8607 31.9196L55.1313 2.14562L52.8925 0ZM56.9752 16.2525C57.566 16.3024 58.0324 16.5328 58.4304 16.9345C60.0225 18.5383 57.7028 24.7821 56.5865 27.4446C55.4671 30.1228 55.8185 32.2123 57.2644 33.6728C59.7302 36.1641 66.2507 30.3034 69.0243 33.0874C71.7793 35.8745 66.7637 41.7976 68.5361 43.5975L68.6356 43.6972L63.0946 49.2403L37.8304 23.9413L42.1059 19.6594C42.1681 19.731 42.2302 19.7808 42.3018 19.8524C44.4162 21.9825 48.7507 19.949 50.5604 18.7812C52.6997 17.411 55.1997 16.1062 56.9752 16.2525ZM33.3621 28.4162L58.6263 53.7184L57.7495 54.5965L52.4074 60.0462C51.2041 59.2179 50.3645 58.5359 47.9361 57.3214C46.0797 56.3965 44.0617 55.5463 41.9131 55.1789C39.7645 54.8114 37.0406 54.8986 35.1096 56.8325L35.0132 57.0287L34.9168 57.1252C34.9168 57.1252 31.2477 61.7839 27.1432 66.8568C23.0388 71.9297 18.2751 77.5849 16.8416 79.0205C14.3883 81.4806 10.5512 81.4806 8.09789 79.0205C7.51572 78.4501 7.05318 77.7689 6.73739 77.017C6.42161 76.2652 6.25894 75.4577 6.25894 74.642C6.25894 73.8264 6.42161 73.0189 6.73739 72.267C7.05318 71.5152 7.51572 70.834 8.09789 70.2636C9.52823 68.828 15.1781 64.0603 20.2434 59.9466C25.3087 55.8359 29.9604 52.1613 29.9604 52.1613L30.0568 52.0648L30.2527 51.9682C32.2209 50.0063 32.0997 47.4061 31.711 45.3507C31.3192 43.2954 30.4455 41.2868 29.5717 39.4121C28.3932 36.8835 27.6998 35.9586 26.9473 34.741L32.4853 29.2913L33.3621 28.4162ZM13.2471 70.4567C12.3449 70.4567 11.4797 70.8156 10.8417 71.4545C10.2038 72.0934 9.8454 72.96 9.8454 73.8635C9.8454 74.7671 10.2038 75.6336 10.8417 76.2725C11.4797 76.9114 12.3449 77.2703 13.2471 77.2703C14.1493 77.2703 15.0146 76.9114 15.6525 76.2725C16.2905 75.6336 16.6489 74.7671 16.6489 73.8635C16.6489 72.96 16.2905 72.0934 15.6525 71.4545C15.0146 70.8156 14.1493 70.4567 13.2471 70.4567Z" fill="black"/>
</g>
<defs>
<clipPath id="clip0_300_118">
<rect width="87" height="87" fill="white"/>
</clipPath>
</defs>
</svg>
