<svg width="87" height="87" viewBox="0 0 87 87" fill="none" xmlns="http://www.w3.org/2000/svg">
<path d="M31.498 66.2893C31.0278 70.0943 29.3831 73.5758 26.8659 76.0946C24.3487 78.6133 21.128 80 17.7955 80C14.4629 80 11.2422 78.6133 8.725 76.0946C6.20779 73.5758 4.56307 70.0943 4.09296 66.2893H0V11.5607C0 10.3511 0.416638 9.1911 1.15826 8.3358C1.89988 7.4805 2.90573 7 3.95455 7H59.3182C60.367 7 61.3728 7.4805 62.1145 8.3358C62.8561 9.1911 63.2727 10.3511 63.2727 11.5607V20.6821H75.1364L87 39.1804V66.2893H78.9525C78.4764 70.0888 76.8292 73.5633 74.3126 76.0763C71.7961 78.5893 68.5788 79.9725 65.25 79.9725C61.9212 79.9725 58.7039 78.5893 56.1874 76.0763C53.6708 73.5633 52.0236 70.0888 51.5475 66.2893H31.498ZM55.3636 16.1214H7.90909V52.8352C9.4694 50.9981 11.3915 49.623 13.5117 48.8268C15.6319 48.0307 17.8876 47.8371 20.0866 48.2626C22.2857 48.688 24.3631 49.7199 26.142 51.2704C27.9208 52.8209 29.3486 54.8441 30.3037 57.1679H52.7418C53.4061 55.5579 54.2959 54.0939 55.3636 52.8352V16.1214ZM63.2727 43.4857H79.0909V42.1859L71.1502 29.8036H63.2727V43.4857ZM65.25 70.85C66.8237 70.85 68.333 70.129 69.4458 68.8456C70.5586 67.5623 71.1838 65.8216 71.1838 64.0067C71.1838 62.1917 70.5586 60.451 69.4458 59.1677C68.333 57.8843 66.8237 57.1633 65.25 57.1633C63.6763 57.1633 62.167 57.8843 61.0542 59.1677C59.9414 60.451 59.3162 62.1917 59.3162 64.0067C59.3162 65.8216 59.9414 67.5623 61.0542 68.8456C62.167 70.129 63.6763 70.85 65.25 70.85ZM23.7273 64.0089C23.7273 63.1105 23.5738 62.221 23.2757 61.391C22.9776 60.561 22.5407 59.8068 21.9899 59.1716C21.4391 58.5363 20.7851 58.0324 20.0655 57.6886C19.3458 57.3448 18.5744 57.1679 17.7955 57.1679C17.0165 57.1679 16.2451 57.3448 15.5254 57.6886C14.8058 58.0324 14.1518 58.5363 13.601 59.1716C13.0502 59.8068 12.6133 60.561 12.3152 61.391C12.0171 62.221 11.8636 63.1105 11.8636 64.0089C11.8636 65.8233 12.4886 67.5634 13.601 68.8463C14.7135 70.1292 16.2222 70.85 17.7955 70.85C19.3687 70.85 20.8775 70.1292 21.9899 68.8463C23.1023 67.5634 23.7273 65.8233 23.7273 64.0089Z" fill="black"/>
</svg>
