<svg width="87" height="87" viewBox="0 0 87 87" fill="none" xmlns="http://www.w3.org/2000/svg">
<g clip-path="url(#clip0_300_114)">
<path d="M85.5283 28.0213C84.5801 25.8547 83.2171 23.8947 81.5161 22.2517C79.7992 20.5874 77.7791 19.2678 75.5653 18.3643C73.2525 17.4174 70.7767 16.9327 68.2776 16.9375C65.7503 16.9375 63.2969 17.4174 60.9899 18.3643C58.7761 19.2678 56.756 20.5874 55.0391 22.2517C53.3352 23.8923 51.9718 25.8529 51.027 28.0213C50.0512 30.2484 49.549 32.6541 49.5523 35.0857V68.8489C49.5523 75.9974 43.5565 81.8134 36.1819 81.8134C28.8086 81.8134 22.8085 75.9959 22.8085 68.8489V53.2919H27.0338C27.9226 53.2919 28.6404 52.5973 28.6404 51.736V45.9766C33.263 43.2086 36.3428 38.251 36.3428 32.5975V26.0609H38.6701C39.5546 26.0609 40.2738 25.3663 40.2738 24.505V18.4382C40.2738 17.719 39.772 17.1129 39.0905 16.936H29.6844V1.55585C29.6888 0.69745 28.9696 0 28.0822 0H25.9434C25.0546 0 24.3383 0.69745 24.3383 1.55585V16.936H15.9399V1.55585C15.9399 0.69745 15.2206 0 14.3347 0H12.1945C11.31 0 10.5908 0.69745 10.5908 1.55585V16.936H1.1861C0.849879 17.0201 0.55104 17.2133 0.336402 17.4854C0.121763 17.7575 0.00345025 18.0931 0 18.4397V24.505C0 25.3663 0.7192 26.0609 1.60225 26.0609H3.93095V32.5975C3.93095 38.2525 7.00785 43.2071 11.6334 45.9766V51.736C11.6334 52.5973 12.3497 53.2919 13.2356 53.2919H17.4624V68.8489C17.4624 71.2994 17.9597 73.6759 18.9341 75.9147C19.8823 78.0813 21.2453 80.0413 22.9463 81.6843C24.6629 83.3496 26.683 84.6702 28.8971 85.5747C31.2055 86.5215 33.6603 87 36.1847 87C38.7092 87 41.167 86.5215 43.4725 85.5747C45.686 84.6701 47.7056 83.3494 49.4218 81.6843C51.1262 80.0439 52.4901 78.0832 53.4354 75.9147C54.4109 73.687 54.9125 71.2808 54.9086 68.8489V35.0857C54.9086 27.9386 60.9044 22.1212 68.2805 22.1212C75.6538 22.1212 81.6539 27.9401 81.6539 35.0857V87H87V35.0857C87 32.6381 86.5027 30.2586 85.5283 28.0213Z" fill="black"/>
</g>
<defs>
<clipPath id="clip0_300_114">
<rect width="87" height="87" fill="white"/>
</clipPath>
</defs>
</svg>
