<svg width="87" height="87" viewBox="0 0 87 87" fill="none" xmlns="http://www.w3.org/2000/svg">
<path d="M21.7692 0C24.7799 11.8806 29.6607 18.7792 32.4658 21.9424L32.6902 22.1871L32.9894 22.3566C36.0563 23.8628 38.0011 27.0072 38.0011 30.4527C38.0011 35.461 33.9992 39.4902 29.0062 39.4902C24.0319 39.4902 20.03 35.461 20.03 30.4527C20.03 28.8335 20.4601 27.2707 21.2643 25.8586L21.8066 24.9172L21.2082 23.9946C17.8234 18.8922 17.5242 14.317 18.4779 9.54589C19.095 6.42041 20.3853 3.21962 21.7692 0ZM44.3967 21.5846C45.8179 21.6035 47.1831 21.8294 48.3051 22.3378C49.0531 23.8628 49.4645 25.8586 50.2873 27.8168C50.7548 28.8711 51.3906 29.9632 52.4566 30.754C53.4664 31.5071 54.7941 31.9025 56.2715 31.8837C66.8372 33.823 73.532 36.8543 78.0201 40.4317C82.5456 43.9902 84.9392 48.1324 86.7906 52.6323V52.6511C87.1085 53.3855 87.0337 53.8562 86.7719 54.3833C86.4914 54.9482 85.9116 55.513 85.201 55.9084C84.4717 56.3038 83.6115 56.4921 82.9383 56.4733C82.2838 56.4356 81.8536 56.2285 81.5544 55.8896C79.273 53.0842 76.5053 49.2432 73.0457 46.1554C69.5675 43.0676 65.2103 40.6764 60.0489 41.2789C56.0844 41.7308 53.8591 40.0739 50.6239 38.1158C48.0994 36.5907 44.9951 34.9903 40.7314 34.802C41.2363 33.4464 41.5168 31.9778 41.5168 30.4527C41.5168 27.3837 40.3948 24.503 38.4874 22.2625C39.5346 22.0742 40.6753 21.8294 41.8721 21.6976C42.5079 21.6411 43.1438 21.5846 43.7796 21.5846H44.3967ZM0 24.8231C5.14262 26.5364 10.5844 28.0615 16.851 27.6097C16.6453 28.5322 16.5143 29.4925 16.5143 30.4527C16.5143 33.3523 17.5242 36.0447 19.1698 38.1911C13.7822 38.1534 10.0608 36.233 6.80696 33.2581C4.3198 30.9611 2.15055 27.9486 0 24.8231ZM29.0062 25.5386C26.3321 25.5386 24.1254 27.7603 24.1254 30.4527C24.1254 33.1451 26.3321 35.3669 29.0062 35.3669C31.6804 35.3669 33.887 33.1451 33.887 30.4527C33.887 27.7603 31.6804 25.5386 29.0062 25.5386ZM29.0062 29.0783C29.7917 29.0783 30.3901 29.6619 30.3901 30.4527C30.3901 31.2247 29.7917 31.8272 29.0062 31.8272C28.2395 31.8272 27.6411 31.2247 27.6411 30.4527C27.6411 29.6619 28.2395 29.0783 29.0062 29.0783ZM33.8309 42.0697C35.0091 51.9733 38.8614 58.5067 43.4056 63.4962C48.4173 68.994 54.0835 72.8538 58.1228 78.0504C58.3472 78.6717 58.4968 79.952 58.3472 81.3077C58.1602 82.7574 57.6927 84.3202 57.0569 85.4122C56.4211 86.4666 55.7665 86.9373 55.1681 86.9938C54.6071 87.0503 53.5599 86.749 51.9891 85.0168C48.623 78.747 41.9469 69.0505 33.1203 64.7953C29.6233 63.1008 27.959 60.7096 27.0801 57.8289C26.2199 54.967 26.2386 51.5779 26.5378 48.396C26.7622 45.7789 26.2573 43.9149 25.6589 42.5592C26.7248 42.8793 27.8468 43.0299 29.0062 43.0299C30.708 43.0299 32.3536 42.6722 33.8309 42.0697Z" fill="black"/>
</svg>
